<?xml version="1.0" standalone="no"?>
<!DOCTYPE svg PUBLIC "-//W3C//DTD SVG 20010904//EN"
 "http://www.w3.org/TR/2001/REC-SVG-20010904/DTD/svg10.dtd">
<svg version="1.0" xmlns="http://www.w3.org/2000/svg"
 width="2000.000000pt" height="2000.000000pt" viewBox="0 0 2000.000000 2000.000000"
 preserveAspectRatio="xMidYMid meet">
<metadata>
Created by potrace 1.14, written by Peter Selinger 2001-2017
</metadata>
<g transform="translate(0.000000,2000.000000) scale(0.100000,-0.100000)"
fill="#000000" stroke="none">
<path d="M9787 16042 c-120 -15 -327 -59 -344 -74 -7 -6 -13 -8 -13 -5 0 12
-168 -57 -295 -120 -283 -142 -571 -412 -739 -690 -70 -117 -177 -362 -202
-463 -69 -285 -67 -233 -68 -1355 l-1 -1011 -87 -89 c-48 -50 -108 -113 -135
-141 -26 -28 -121 -127 -210 -220 -88 -93 -188 -197 -220 -231 -32 -35 -63
-63 -68 -63 -6 0 -547 537 -1203 1193 l-1192 1192 -2500 0 c-1375 0 -2500 -2
-2500 -5 0 -3 391 -396 868 -875 l867 -870 828 0 c455 0 827 2 827 5 0 3 -100
105 -223 227 -122 122 -247 247 -277 277 l-54 56 826 0 826 0 1456 -1456 c801
-801 1460 -1453 1464 -1449 539 542 2567 2548 2580 2552 4 2 219 -212 477
-474 507 -514 1962 -1979 2033 -2047 24 -22 47 -42 50 -43 4 -2 664 654 1466
1457 l1460 1460 823 0 c453 0 823 -2 823 -4 0 -3 -124 -128 -275 -279 -151
-151 -275 -276 -275 -278 0 -2 376 -4 835 -4 l836 1 869 869 c479 479 870 872
870 875 0 3 -1125 6 -2500 5 l-2500 0 -1198 -1198 -1198 -1198 -49 55 c-28 30
-122 129 -210 221 -88 93 -180 189 -205 215 -25 26 -90 94 -145 152 -291 305
-454 475 -485 508 -31 33 -300 315 -420 440 -140 146 -390 409 -424 444 -21
23 -82 86 -135 142 -53 55 -173 181 -267 280 -95 98 -190 199 -213 223 l-41
43 -39 -41 c-21 -22 -112 -118 -202 -212 -90 -94 -184 -192 -208 -218 -24 -25
-117 -122 -206 -216 -90 -93 -187 -195 -217 -227 -29 -31 -127 -134 -218 -229
-91 -94 -184 -192 -208 -218 l-42 -45 1 699 c0 385 5 725 9 755 35 235 106
423 224 595 199 289 502 488 856 561 127 27 381 24 517 -5 365 -77 680 -296
870 -606 27 -44 56 -96 65 -115 9 -19 25 -56 37 -82 28 -63 68 -205 85 -303 9
-57 14 -197 15 -494 2 -439 4 -455 52 -525 31 -45 108 -95 164 -105 62 -12
111 -5 172 25 56 27 92 63 125 128 21 40 22 52 22 451 0 226 -3 444 -7 485
-19 207 -73 416 -154 590 -19 41 -39 84 -43 95 -16 38 -115 195 -172 272 -86
117 -246 277 -368 369 -271 205 -585 328 -940 370 -96 11 -298 10 -403 -4z"/>
<path d="M2931 11025 c2 -2 496 -499 1098 -1105 l1094 -1100 831 0 830 0
-1105 1105 -1104 1105 -824 0 c-453 0 -822 -2 -820 -5z"/>
<path d="M13678 9321 c-940 -940 -1708 -1711 -1708 -1713 0 -3 375 -5 834 -5
l834 0 1714 1714 1713 1713 -840 0 -840 -1 -1707 -1708z"/>
<path d="M9060 10035 c-514 -514 -936 -938 -937 -942 -2 -5 419 -430 935 -946
l938 -938 934 935 c514 514 936 939 938 945 3 9 -1858 1881 -1870 1881 -2 0
-424 -421 -938 -935z m1059 -350 c153 -51 259 -184 269 -339 8 -137 -43 -250
-151 -335 l-60 -47 1 -285 c0 -226 -3 -291 -14 -319 -57 -135 -242 -147 -313
-19 -20 35 -21 53 -21 333 l0 296 -37 24 c-88 56 -152 152 -171 256 -52 283
224 524 497 435z"/>
<path d="M6323 7620 c7 -8 352 -356 767 -773 415 -416 1235 -1240 1822 -1830
l1067 -1072 1236 1236 1237 1236 -839 0 -838 0 -394 -394 c-217 -216 -398
-392 -403 -391 -5 2 -459 453 -1009 1003 l-999 999 -829 1 c-730 0 -828 -2
-818 -15z"/>
</g>
</svg>
